<svg id="ea585a05-0bb3-4f66-a6cb-9393c280ea28" data-name="Layer 1" xmlns="http://www.w3.org/2000/svg" width="2.56019in" height="2.38889in" viewBox="0 0 184.3335 172"><path d="M813.60526,725.48485a20.01146,20.01146,0,0,1-19.07849-26.03913c-.31024.01429-.6156.04694-.92938.04694a19.99891,19.99891,0,0,1-19.28687-14.75256,20.0307,20.0307,0,0,1-14.1557-14.58753,82.009,82.009,0,1,0,65.46649,80.33228c0-2.29517-.11865-4.56146-.30359-6.8089A19.99523,19.99523,0,0,1,813.60526,725.48485Z" transform="translate(-657.62113 -664.48485)" fill="#d69a6c"/><path d="M743.62113,836.48485a86,86,0,1,1,17.33643-170.251,4.00153,4.00153,0,0,1,3.08593,2.98145,15.98427,15.98427,0,0,0,11.32325,11.666,4.001,4.001,0,0,1,2.80371,2.8086,16.02534,16.02534,0,0,0,15.42675,11.80273c.11182,0,.22217-.01074.332-.01758l.40918-.02441a3.99939,3.99939,0,0,1,4.00244,5.20019,16.01107,16.01107,0,0,0,15.26465,20.834,4.0002,4.0002,0,0,1,4,4A16.04886,16.04886,0,0,0,826.98,740.03758a3.99952,3.99952,0,0,1,2.32422,3.31153c.21338,2.59375.31689,4.92773.31689,7.13574A86.09728,86.09728,0,0,1,743.62113,836.48485Zm0-164a78,78,0,1,0,78,78c0-1.35742-.04443-2.77735-.13428-4.29785A24.10421,24.10421,0,0,1,809.897,729.19872,24.04668,24.04668,0,0,1,789.5972,705.477q0-1.15576.11036-2.30274a24.074,24.074,0,0,1-18.57276-15.26367,23.98651,23.98651,0,0,1-14.10449-14.27734A78.73133,78.73133,0,0,0,743.62113,672.48485Z" transform="translate(-657.62113 -664.48485)" fill="#3c2415"/><ellipse cx="82.00018" cy="44.66667" rx="6.66667" ry="7.33333" fill="#3c2415"/><ellipse cx="38.33352" cy="81.66667" rx="10.33333" ry="15" fill="#3c2415"/><ellipse cx="120.66685" cy="68.66667" rx="7.33333" ry="5.33333" fill="#3c2415"/><ellipse cx="82.00018" cy="112" rx="12.33333" ry="8.33333" fill="#3c2415"/><ellipse cx="109.66685" cy="141.585" rx="3.66667" ry="2.805" fill="#3c2415"/><ellipse cx="138.66685" cy="112" rx="10" ry="7.66667" fill="#3c2415"/><ellipse cx="53.66685" cy="133.72333" rx="5" ry="5.05667" fill="#3c2415"/><ellipse cx="168.00018" cy="37.33333" rx="12.33333" ry="11" fill="#d69a6c"/><path d="M825.62113,716.81786c-9.00586,0-16.333-6.72852-16.333-15s7.32715-15,16.333-15c9.00635,0,16.3335,6.72851,16.3335,15S834.62748,716.81786,825.62113,716.81786Zm0-22c-4.59473,0-8.333,3.14062-8.333,7s3.73828,7,8.333,7c4.59522,0,8.3335-3.14063,8.3335-7S830.21635,694.81786,825.62113,694.81786Z" transform="translate(-657.62113 -664.48485)" fill="#3c2415"/><ellipse cx="142.08352" cy="9.5" rx="6.58333" ry="5.5" fill="#d69a6c"/><path d="M799.70463,683.48485c-5.83594,0-10.5835-4.26172-10.5835-9.5s4.74756-9.5,10.5835-9.5,10.58349,4.26172,10.58349,9.5S805.54056,683.48485,799.70463,683.48485Zm0-11c-1.55323,0-2.5835.90332-2.5835,1.5s1.03027,1.5,2.5835,1.5,2.58349-.90332,2.58349-1.5S801.25785,672.48485,799.70463,672.48485Z" transform="translate(-657.62113 -664.48485)" fill="#3c2415"/></svg>