<svg id="b8b08b83-e519-49be-b34c-8ac4ec8f6550" data-name="svg2" xmlns="http://www.w3.org/2000/svg" width="127.96449mm" height="180.62222mm" viewBox="0 0 362.734 512"><g id="b109ae1c-7140-4fcb-9e60-8b26175debaa" data-name="layer1"><g id="f58e3113-c100-402c-9843-f896cdc9bcde" data-name="g3013"><polygon id="add85410-bb32-498a-a57b-5f39e6283571" data-name="polygon2989" points="181.145 512 33.011 470.877 0 100.62 362.734 100.62 329.688 470.819 181.145 512" fill="#264de4"/><polygon id="f2524c35-e0ca-4746-b424-1318380965ed" data-name="polygon2991" points="301.397 447.246 329.637 130.894 181.367 130.894 181.367 480.523 301.397 447.246" fill="#2965f1"/><polygon id="ab9860b3-2069-4a18-a692-698e99b2eed7" data-name="polygon2993" points="75.677 268.217 79.747 313.627 181.367 313.627 181.367 268.217 75.677 268.217" fill="#ebebeb"/><polygon id="fda5c403-1064-487d-88a4-507950c0b3b5" data-name="polygon2995" points="67.499 176.305 71.627 221.716 181.367 221.716 181.367 176.305 181.21 176.305 67.499 176.305" fill="#ebebeb"/><polygon id="bc1a0f7a-a8f2-4a78-be2e-70565cdf9a71" data-name="polygon2997" points="181.367 386.153 181.168 386.206 130.594 372.55 127.361 336.333 102.786 336.333 81.776 336.333 88.138 407.634 181.158 433.457 181.367 433.399 181.367 386.153" fill="#ebebeb"/><path id="e4673a22-bf33-4895-9898-73a50246d780" data-name="path2999" d="M85.367.00005h55v23h-32v23h32v23h-55Z" transform="translate(-0.00001 -0.00005)"/><path id="a814feb4-3ef6-4c30-861b-e279ce410aba" data-name="path3001" d="M151.367.00005h55v20h-32v4h32v46h-55v-21h32v-4h-32Z" transform="translate(-0.00001 -0.00005)"/><path id="fa15d267-8e62-4cac-a3e1-bd994bbf0ecd" data-name="path3003" d="M217.367.00005h55v20h-32v4h32v46h-55v-21h32v-4h-32Z" transform="translate(-0.00001 -0.00005)"/><polygon id="bec56b7e-37d4-4adb-ade4-66be91cddb3c" data-name="polygon3005" points="286.766 268.217 294.964 176.305 181.21 176.305 181.21 221.716 245.198 221.716 241.066 268.217 181.21 268.217 181.21 313.627 237.128 313.627 231.857 372.521 181.21 386.191 181.21 433.435 274.304 407.634 274.987 399.962 285.658 280.411 286.766 268.217" fill="#fff"/></g></g></svg>