<svg xmlns="http://www.w3.org/2000/svg" width="3.94306in" height="3.94306in" viewBox="0 0 283.90002 283.90002"><g id="a8281bf5-6702-414b-95dc-dd03e78e3cbd" data-name="Layer 2"><circle cx="141.95001" cy="141.95001" r="141.95001" fill="#9ae1ff"/></g><g id="fb47f86e-62ec-433f-a427-b84445f5939c" data-name="Layer 3"><polygon points="10.2 107.13 4.472 141.95 10.2 176.066 273.7 176.066 279.451 141.598 273.7 107.13 10.2 107.13" fill="#bff3ff"/></g><g id="b696bf45-6a0f-4c8b-ad1b-dfd90db8678c" data-name="Layer 1"><path d="M749.78788,892.38484c78.3,0,141.9-63.7,141.9-141.9s-63.7-141.9-141.9-141.9-141.9,63.7-141.9,141.9S671.48789,892.38484,749.78788,892.38484Zm-94.9-50.5a166.19341,166.19341,0,0,1,33.2-12.7,151.73689,151.73689,0,0,0,14.8,31.6,86.72588,86.72588,0,0,0,14.1,17.3A131.48327,131.48327,0,0,1,654.88792,841.88484Zm-36.9-91.4a130.3669,130.3669,0,0,1,3.2-28.8h257.1a131.19951,131.19951,0,0,1,0,57.6h-257.1A130.37049,130.37049,0,0,1,617.98789,750.48488Zm202.9-39a227.10425,227.10425,0,0,0-6.4-30,167.79059,167.79059,0,0,0,37.1-14.6,131.21162,131.21162,0,0,1,24.1,44.6Zm-10.3,0h-55.7v-21.8a247.78346,247.78346,0,0,0,49.7-5.8A219.72511,219.72511,0,0,1,810.58793,711.48488Zm-55.7-32v-60.3c18.6,3.2,35.7,24.1,46.6,55A240.81767,240.81767,0,0,1,754.88792,679.48488Zm-10.2-60.3v60.3a239.91584,239.91584,0,0,1-46.6-5.3C708.88792,643.28487,726.08793,622.38487,744.6879,619.18486Zm0,70.5v21.8h-55.7a215.92,215.92,0,0,1,6-27.6A247.78126,247.78126,0,0,0,744.6879,689.68486Zm-66,21.8h-54.8a131.21265,131.21265,0,0,1,24.1-44.6,172.83131,172.83131,0,0,0,37.1,14.6A227.11391,227.11391,0,0,0,678.6879,711.48488Zm66,99.8a247.78274,247.78274,0,0,0-49.7,5.8,219.72621,219.72621,0,0,1-6-27.6h55.7Zm0,10.2v60.3c-18.6-3.2-35.7-24.1-46.6-55A239.91275,239.91275,0,0,1,744.6879,821.48488Zm10.2,60.3v-60.3a239.91584,239.91584,0,0,1,46.6,5.3C790.58793,857.68489,773.48789,878.58485,754.88792,881.78487Zm0-70.5v-21.8h55.7a215.92,215.92,0,0,1-6,27.6A249.511,249.511,0,0,0,754.88792,811.28487Zm66-21.8h54.8a131.21265,131.21265,0,0,1-24.1,44.6,172.83131,172.83131,0,0,0-37.1-14.6A244.37236,244.37236,0,0,0,820.88792,789.48488Zm-142.2,0a227.10425,227.10425,0,0,0,6.4,30,167.79059,167.79059,0,0,0-37.1,14.6,131.21162,131.21162,0,0,1-24.1-44.6Zm103.8,88.6a92.83563,92.83563,0,0,0,14.1-17.3,151.73839,151.73839,0,0,0,14.8-31.6,160.338,160.338,0,0,1,33.2,12.7A131.4836,131.4836,0,0,1,782.48789,878.08485Zm62.1-219a166.193,166.193,0,0,1-33.2,12.7,151.73866,151.73866,0,0,0-14.8-31.6,86.72747,86.72747,0,0,0-14.1-17.3A131.485,131.485,0,0,1,844.58793,659.08485Zm-127.5-36.2a92.83572,92.83572,0,0,0-14.1,17.3,151.73866,151.73866,0,0,0-14.8,31.6,160.33586,160.33586,0,0,1-33.2-12.7A130.53414,130.53414,0,0,1,717.08793,622.88487Z" transform="translate(-607.78788 -608.53487)" fill="#606060"/><path d="M689.23584,729.4917h15.84961a30.97077,30.97077,0,0,1,8.17383.82031,14.37377,14.37377,0,0,1,6.47461,3.95508,18.768,18.768,0,0,1,4.10156,6.958A31.695,31.695,0,0,1,725.2417,751.376a28.22685,28.22685,0,0,1-1.31836,9.14062,18.93572,18.93572,0,0,1-4.59961,7.58789,15.24786,15.24786,0,0,1-6.09375,3.42774,26.23875,26.23875,0,0,1-7.67578.9082H689.23584Zm8.67187,7.26562V765.2041h6.47461a23.571,23.571,0,0,0,5.24414-.41015,8.0044,8.0044,0,0,0,3.501-1.78711,9.09246,9.09246,0,0,0,2.27051-4.14551,28.00754,28.00754,0,0,0,.87891-7.86572,25.65789,25.65789,0,0,0-.87891-7.64649A9.8306,9.8306,0,0,0,712.937,739.189a8.25229,8.25229,0,0,0-4.01367-2.02148,39.32443,39.32443,0,0,0-7.11914-.41016Z" transform="translate(-607.78788 -608.53487)" fill="#606060"/><path d="M732.68311,772.44043V729.4917h8.4375l17.57861,28.68115V729.4917h8.05664v42.94873h-8.70117l-17.31494-28.00732v28.00732Z" transform="translate(-607.78788 -608.53487)" fill="#606060"/><path d="M773.72852,758.46582l8.4375-.82031a10.29258,10.29258,0,0,0,3.08984,6.24023,9.34292,9.34292,0,0,0,6.28516,1.99219q4.18944,0,6.3125-1.77246a5.27453,5.27453,0,0,0,2.125-4.14551,3.914,3.914,0,0,0-.89454-2.59277,7.14334,7.14334,0,0,0-3.11914-1.86035q-1.52343-.52736-6.94336-1.875-6.97264-1.72852-9.78515-4.24756a11.17476,11.17476,0,0,1-3.95508-8.64258,11.04086,11.04086,0,0,1,1.85937-6.1377,11.64751,11.64751,0,0,1,5.36133-4.35058,21.49271,21.49271,0,0,1,8.45313-1.49414q8.08593,0,12.17187,3.54492a12.51364,12.51364,0,0,1,4.293,9.46289l-8.67187.38086a7.36464,7.36464,0,0,0-2.38867-4.76074,8.73908,8.73908,0,0,0-5.49219-1.4502,9.90656,9.90656,0,0,0-5.918,1.55274,3.12647,3.12647,0,0,0-1.37695,2.666,3.2953,3.2953,0,0,0,1.28906,2.60742q1.64063,1.37769,7.96875,2.8711a42.04034,42.04034,0,0,1,9.35937,3.09082,12.066,12.066,0,0,1,4.7461,4.36474,13.51715,13.51715,0,0,1-.33594,13.75489,12.27917,12.27917,0,0,1-5.80078,4.79,24.32931,24.32931,0,0,1-9.34571,1.56738q-8.146,0-12.50976-3.76465Q774.57667,765.67432,773.72852,758.46582Z" transform="translate(-607.78788 -608.53487)" fill="#606060"/></g></svg>