<svg id="f54e772f-836a-43d6-ae02-58028e0900fd" data-name="Layer 1" xmlns="http://www.w3.org/2000/svg" width="2.04678in" height="1.67154in" viewBox="0 0 147.36838 120.35088"><g id="e57b6539-3829-4cfc-8999-c73faf871cb9" data-name="screen-domain"><path d="M821.01593,768.906v14.7368a4.91239,4.91239,0,0,1-4.9122,4.9123H683.47213a4.91248,4.91248,0,0,1-4.9123-4.9123V768.906" transform="translate(-676.10369 -690.30941)" fill="#dbdbdb" stroke="#244860" stroke-linecap="round" stroke-linejoin="round" stroke-width="4.91228"/><path d="M678.55983,768.906v-71.2281a4.91254,4.91254,0,0,1,4.9123-4.9123h132.6316a4.91246,4.91246,0,0,1,4.9122,4.9123V768.906" transform="translate(-676.10369 -690.30941)" fill="#fff" stroke="#244860" stroke-linecap="round" stroke-linejoin="round" stroke-width="4.91228"/><rect x="56.49124" y="98.24564" width="34.386" height="19.6491" fill="#d4d4d4" stroke="#244860" stroke-linecap="round" stroke-linejoin="round" stroke-width="4.91228"/><line x1="144.91224" y1="78.59654" x2="2.45614" y2="78.59654" fill="none" stroke="#244860" stroke-linecap="round" stroke-linejoin="round" stroke-width="4.91228"/><line x1="100.70174" y1="117.89474" x2="46.66664" y2="117.89474" fill="none" stroke="#244860" stroke-linecap="round" stroke-linejoin="round" stroke-width="4.91228"/><path d="M752.244,778.11645a2.45615,2.45615,0,1,1-2.4561-2.4561A2.45627,2.45627,0,0,1,752.244,778.11645Z" transform="translate(-676.10369 -690.30941)" fill="#244860"/><path d="M720.30213,733.56775a14.7368,14.7368,0,1,1-14.7368-14.7368A14.73694,14.73694,0,0,1,720.30213,733.56775Z" transform="translate(-676.10369 -690.30941)" fill="#b9dc48"/><polyline points="37.487 38.039 27.241 48.473 21.436 44.194" fill="none" stroke="#244860" stroke-width="4.91228"/><path d="M745.20893,736.103h.0864l1.8854-9.786h4.087l-3.9576,15.5715h-3.5115l-2.8926-8.9804h-.0865l-2.8926,8.9804h-3.497L730.472,726.317h4.0873l1.9141,9.743h.0864l2.9071-9.743h2.8062Z" transform="translate(-676.10369 -690.30941)" fill="#244860"/><path d="M768.37083,736.103h.0864l1.8854-9.786h4.087l-3.9576,15.5715h-3.5115l-2.8926-8.9804h-.0865l-2.8926,8.9804h-3.4973l-3.9576-15.5715h4.0873l1.9141,9.743h.0862l2.9071-9.743h2.8064Z" transform="translate(-676.10369 -690.30941)" fill="#244860"/><path d="M791.53273,736.103h.0862l1.8853-9.786h4.0873l-3.9576,15.5715h-3.5115l-2.8929-8.9804h-.0862l-2.8928,8.9804h-3.4971l-3.9576-15.5715h4.0873l1.9141,9.743h.0862l2.9071-9.743h2.8064Z" transform="translate(-676.10369 -690.30941)" fill="#244860"/><path d="M804.02933,741.88845h-4.2025v-3.6843h4.2025Z" transform="translate(-676.10369 -690.30941)" fill="#244860"/></g></svg>