<svg id="e214d3c4-10ac-46d7-804e-8f128e3829f9" data-name="Layer 1" xmlns="http://www.w3.org/2000/svg" width="11.95833in" height="7.98611in" viewBox="0 0 861 575"><path d="M1067.12788,462.98485h-634.68c-62.39611,0-113.16,47.845-113.16,106.6532v361.6936c0,58.8082,50.76389,106.6532,113.16,106.6532h634.68c62.39607,0,113.16-47.845,113.16-106.6532V569.63805C1180.28788,510.82985,1129.524,462.98485,1067.12788,462.98485ZM634.98527,574.162a110.72554,110.72554,0,0,1,14.76-29.3215,114.9207,114.9207,0,0,1,23.37-24.4647,111.47819,111.47819,0,0,1,30.95661-17.0042,160.94348,160.94348,0,0,1,69.70158-7.2863,147.75554,147.75554,0,0,1,34.03042,8.1535,118.58537,118.58537,0,0,1,29.52118,15.7905q16.39425,13.1913,24.39582,30.5351a88.49919,88.49919,0,0,1,7.995,37.4772,75.8715,75.8715,0,0,1-2.66542,19.4337,90.29128,90.29128,0,0,1-7.78958,19.6058,99.60372,99.60372,0,0,1-12.30122,17.8714,76.91211,76.91211,0,0,1-16.1954,14.2282,41.47872,41.47872,0,0,1-15.7846,6.9398,62.28408,62.28408,0,0,1-18.4512,1.388,49.86244,49.86244,0,0,1-17.4254-4.5126,26.39387,26.39387,0,0,1-12.3-11.1036.66451.66451,0,0,0-.2054-.5208.62662.62662,0,0,1-.2042-.5208l-.4108.6951q-10.66635,10.06665-26.445,12.8381a49.86629,49.86629,0,0,1-30.1362-3.8152q-10.66635-5.54955-16.19539-13.5332a45.66132,45.66132,0,0,1-7.38-17.0042,61.01029,61.01029,0,0,1-.8204-18.7386,127.46466,127.46466,0,0,1,3.4858-19.0872,84.4987,84.4987,0,0,1,8.4046-19.085,75.36685,75.36685,0,0,1,13.53119-16.8299,66.90645,66.90645,0,0,1,18.45-12.1452,56.02821,56.02821,0,0,1,23.1658-4.6846,48.28059,48.28059,0,0,1,16.3996,2.9502,34.71824,34.71824,0,0,1,13.53122,8.5021l2.46-10.0644h24.6q-8.20518,33.66435-13.53,56.0414-5.33328,22.3851-7.78962,30.7117a31.57472,31.57472,0,0,0-1.43538,12.666q.61437,6.07605,3.89538,9.5436,3.27555,3.47115,9.63462,3.2967,6.35292-.1731,15.78578-6.0726,10.24305-6.58875,19.065-20.1288a76.65738,76.65738,0,0,0,11.4808-29.4958,72.03812,72.03812,0,0,0-2.2558-32.6182q-4.9188-16.65555-21.7304-30.1909a84.03713,84.03713,0,0,0-30.5458-15.614,133.67135,133.67135,0,0,0-31.98-4.859,137.10882,137.10882,0,0,0-28.2912,2.0831q-12.915,2.4318-19.4758,5.5518a156.98248,156.98248,0,0,0-14.145,7.9814,92.56736,92.56736,0,0,0-19.27039,16.309,101.97963,101.97963,0,0,0-16.8104,25.332q-7.17825,14.92335-7.17579,34.7012a73.80612,73.80612,0,0,0,5.74039,29.1494,87.18261,87.18261,0,0,0,15.5804,24.4625,93.57951,93.57951,0,0,0,23.57539,18.7386,104.68475,104.68475,0,0,0,29.7266,11.278,124.32784,124.32784,0,0,0,42.8458,2.2575q21.52563-2.60505,48.5862-13.7076l.8204,19.7802a164.56412,164.56412,0,0,1-83.0274,12.6659,149.08042,149.08042,0,0,1-39.3612-9.7179,122.35118,122.35118,0,0,1-33.82619-20.2987,93.75506,93.75506,0,0,1-12.50539-13.1867,100.00662,100.00662,0,0,1-11.27541-17.8714,126.82116,126.82116,0,0,1-8.1992-21.1681,81.993,81.993,0,0,1-3.28039-23.0768A99.49361,99.49361,0,0,1,634.98527,574.162ZM353.72788,931.33165V569.63805a71.10626,71.10626,0,0,1,16.15889-44.9618l270.8023,201.3874-278.73619,238.233A70.2787,70.2787,0,0,1,353.72788,931.33165Zm713.4,74.1935h-634.68a80.89067,80.89067,0,0,1-56.11-22.2226l283.93339-242.6762,13.25661,9.8585s73.8,60.2823,152.52,0c4.29668-3.2903,9.02768-6.938,14.10128-10.8679l286.68159,239.9894A80.59882,80.59882,0,0,1,1067.12788,1005.52515Zm78.72-74.1935a70.10819,70.10819,0,0,1-5.93113,28.2194L859.34656,724.67725c88.2594-68.9561,243.06-192.9959,262.337-208.4493,14.8792,13.5057,24.16433,32.4497,24.16433,53.4101Z" transform="translate(-319.28788 -462.98485)"/><path d="M752.04306,558.89445a27.018,27.018,0,0,0-17.0158,5.8982,59.87567,59.87567,0,0,0-12.7108,13.3588,80.76531,80.76531,0,0,0-8.1992,14.9234,97.91128,97.91128,0,0,0-3.89538,10.5829,33.52929,33.52929,0,0,0-2.25582,11.2781,48.00873,48.00873,0,0,0,1.02582,11.7987,30.97965,30.97965,0,0,0,4.09958,10.2365,17.16841,17.16841,0,0,0,7.38,6.5934q7.78545,3.8208,14.96542,2.4295a33.46132,33.46132,0,0,0,12.91618-5.3798,40.33634,40.33634,0,0,0,9.84-9.7157,56.25487,56.25487,0,0,0,6.15-10.5829,159.577,159.577,0,0,0,6.765-20.4752,83.71869,83.71869,0,0,0,2.6654-20.8194,19.33325,19.33325,0,0,0-5.9458-14.2283Q761.88,558.89675,752.04306,558.89445Z" transform="translate(-319.28788 -462.98485)"/></svg>