<svg xmlns="http://www.w3.org/2000/svg" xmlns:xlink="http://www.w3.org/1999/xlink" width="15.96672in" height="15.16978in" viewBox="0 0 1149.60352 1092.22424"><defs><linearGradient id="ae3be15d-3e32-43d0-b459-5006f8401062" x1="229.86932" y1="619.88172" x2="1447.66158" y2="619.88172" gradientTransform="matrix(1, -0.00053, -0.00053, -1, -287.749, 1111.80792)" gradientUnits="userSpaceOnUse"><stop offset="0.12" stop-color="#e6332a"/><stop offset="1" stop-color="#be1622"/></linearGradient><linearGradient id="a21c90a6-c042-438b-8188-ac1cd55c6094" x1="256.26647" y1="340.4667" x2="631.72897" y2="340.4667" xlink:href="#ae3be15d-3e32-43d0-b459-5006f8401062"/><linearGradient id="b50ee310-dfff-471b-b55d-7210874e3f43" x1="735.73325" y1="344.13298" x2="1499.54303" y2="344.13298" xlink:href="#ae3be15d-3e32-43d0-b459-5006f8401062"/></defs><g id="beb1c7ef-bd86-4bd8-8410-1ffa955a3c22" data-name="Layer 2"><rect x="53.68155" y="2.83465" width="1002.51961" height="1002.51961" rx="18" fill="#c9eaff" stroke="#000" stroke-miterlimit="10" stroke-width="5.66929"/><polygon points="329.848 574.681 566.543 550.851 997.919 409.075 108.137 408.637 329.848 574.681" fill="url(#ae3be15d-3e32-43d0-b459-5006f8401062)"/><polygon points="359.046 668.804 566.543 550.851 997.919 409.075 276.162 933.117 359.046 668.804" fill="#19579f"/><polygon points="752.494 656.121 593.086 771.893 832.374 932.824 752.494 656.121" fill="#19579f"/><polygon points="454.492 350.724 651.504 352.434 554.726 80.844 454.492 350.724" fill="#19579f"/><rect x="2.83465" y="620.44968" width="309.09091" height="309.09091" rx="18" fill="#8dc4f0" stroke="#000" stroke-miterlimit="10" stroke-width="5.66929"/><polygon points="87.981 796.758 160.957 789.411 293.956 745.699 19.624 745.564 87.981 796.758" fill="url(#a21c90a6-c042-438b-8188-ac1cd55c6094)"/><polygon points="96.983 825.777 160.957 789.411 293.956 745.699 71.429 907.269 96.983 825.777" fill="#19579f"/><polygon points="218.288 821.867 169.141 857.561 242.917 907.178 218.288 821.867" fill="#19579f"/><polygon points="126.41 727.709 187.152 728.236 157.314 644.501 126.41 727.709" fill="#19579f"/><rect x="517.97996" y="460.60068" width="628.78891" height="628.78891" rx="18" fill="#8dc4f0" stroke="#000" stroke-miterlimit="10" stroke-width="5.66929"/><polygon points="691.194 819.268 839.651 804.321 1110.214 715.398 552.135 715.123 691.194 819.268" fill="url(#b50ee310-dfff-471b-b55d-7210874e3f43)"/><polygon points="709.507 878.303 839.651 804.321 1110.214 715.398 657.522 1044.082 709.507 878.303" fill="#19579f"/><polygon points="956.281 870.347 856.299 942.961 1006.383 1043.898 956.281 870.347" fill="#19579f"/><polygon points="769.372 678.8 892.939 679.873 832.24 509.529 769.372 678.8" fill="#19579f"/></g></svg>