<svg id="b3ef1f68-22c5-4609-966a-31928b88ddad" data-name="Layer 1" xmlns="http://www.w3.org/2000/svg" width="1.70006in" height="1.55807in" viewBox="0 0 122.40428 112.18118"><g id="f598c707-5737-47ee-9538-02cafb967132" data-name="network-server"><path d="M17.78294,2.45614H104.621a15.3271,15.3271,0,0,1,15.3271,15.3271v76.615a15.3268,15.3268,0,0,1-15.3268,15.3268H17.78324a15.3271,15.3271,0,0,1-15.3271-15.3271v-76.615A15.3268,15.3268,0,0,1,17.78294,2.45614Z" fill="#fff" stroke="#244860" stroke-linecap="round" stroke-linejoin="round" stroke-width="4.91228"/><path d="M780.92608,698.39745a5.10655,5.10655,0,1,0,5.1044-5.109A5.10508,5.10508,0,0,0,780.92608,698.39745Z" transform="translate(-688.58574 -679.25681)" fill="#30c753"/><path d="M780.92608,734.15055a5.10655,5.10655,0,1,0,5.1044-5.109A5.10619,5.10619,0,0,0,780.92608,734.15055Z" transform="translate(-688.58574 -679.25681)" fill="#f63332"/><path d="M780.92608,769.91335a5.10655,5.10655,0,1,0,5.1044-5.109A5.11224,5.11224,0,0,0,780.92608,769.91335Z" transform="translate(-688.58574 -679.25681)" fill="#30c753"/><line x1="117.39124" y1="73.97204" x2="5.01084" y2="73.97204" fill="none" stroke="#244860" stroke-linecap="round" stroke-linejoin="round" stroke-width="4.91228"/><line x1="117.39124" y1="36.84204" x2="5.01084" y2="36.84204" fill="none" stroke="#244860" stroke-linecap="round" stroke-linejoin="round" stroke-width="4.91228"/><path d="M738.18827,698.39745a2.55451,2.55451,0,1,0,2.55463-2.5522A2.55147,2.55147,0,0,0,738.18827,698.39745Z" transform="translate(-688.58574 -679.25681)" fill="#244860"/><path d="M718.01868,698.39745a2.5533,2.5533,0,1,0,2.5546-2.5522A2.553,2.553,0,0,0,718.01868,698.39745Z" transform="translate(-688.58574 -679.25681)" fill="#244860"/><path d="M707.93038,698.39745a2.5557,2.5557,0,1,0,2.5568-2.5522A2.5533,2.5533,0,0,0,707.93038,698.39745Z" transform="translate(-688.58574 -679.25681)" fill="#244860"/><path d="M738.18827,734.15055a2.55451,2.55451,0,1,0,2.55463-2.5522A2.55252,2.55252,0,0,0,738.18827,734.15055Z" transform="translate(-688.58574 -679.25681)" fill="#244860"/><path d="M718.01868,734.15055a2.5533,2.5533,0,1,0,2.5546-2.5522A2.55407,2.55407,0,0,0,718.01868,734.15055Z" transform="translate(-688.58574 -679.25681)" fill="#244860"/><path d="M707.93038,734.15055a2.5557,2.5557,0,1,0,2.5568-2.5522A2.55435,2.55435,0,0,0,707.93038,734.15055Z" transform="translate(-688.58574 -679.25681)" fill="#244860"/><path d="M738.18827,769.91335a2.55451,2.55451,0,1,0,2.55463-2.5521A2.54749,2.54749,0,0,0,738.18827,769.91335Z" transform="translate(-688.58574 -679.25681)" fill="#244860"/><path d="M728.09988,698.39745a2.55576,2.55576,0,1,0,2.55688-2.5522A2.55339,2.55339,0,0,0,728.09988,698.39745Z" transform="translate(-688.58574 -679.25681)" fill="#244860"/><path d="M728.09988,734.15055a2.55576,2.55576,0,1,0,2.55688-2.5522A2.55444,2.55444,0,0,0,728.09988,734.15055Z" transform="translate(-688.58574 -679.25681)" fill="#244860"/><path d="M728.09988,769.91335a2.55576,2.55576,0,1,0,2.55688-2.5521A2.54941,2.54941,0,0,0,728.09988,769.91335Z" transform="translate(-688.58574 -679.25681)" fill="#244860"/><path d="M718.01868,769.91335a2.5533,2.5533,0,1,0,2.5546-2.5521A2.549,2.549,0,0,0,718.01868,769.91335Z" transform="translate(-688.58574 -679.25681)" fill="#244860"/><path d="M707.93038,769.91335a2.5557,2.5557,0,1,0,2.5568-2.5521A2.54932,2.54932,0,0,0,707.93038,769.91335Z" transform="translate(-688.58574 -679.25681)" fill="#244860"/></g></svg>