<svg id="a8a0a95c-372d-4037-94a5-56f173bea6ec" data-name="svg2" xmlns="http://www.w3.org/2000/svg" width="127.96449mm" height="180.62222mm" viewBox="0 0 362.734 512"><g id="af38a5f4-10d2-4ff8-80ad-60decea1e197" data-name="layer1"><g id="b2702ff8-1d4f-4e08-a70e-a17a5a71ced6" data-name="g3054"><polygon id="f26318c5-43d9-445f-a48b-e6d08cbdc302" data-name="polygon3028" points="362.734 100.62 329.688 470.819 181.145 512 33.011 470.877 0 100.62 362.734 100.62" fill="#e44d26"/><polygon id="bad13089-230d-4b1d-a05b-b64832df062c" data-name="polygon3030" points="181.367 480.523 301.397 447.246 329.637 130.894 181.367 130.894 181.367 480.523" fill="#f16529"/><polygon id="ba0b1dbc-016b-4b36-a80e-4ee89c23a792" data-name="polygon3032" points="117.127 221.716 181.367 221.716 181.367 176.305 181.21 176.305 67.499 176.305 68.586 188.488 79.747 313.627 181.367 313.627 181.367 268.217 121.277 268.217 117.127 221.716" fill="#ebebeb"/><polygon id="bf5688f6-f37b-42d4-ac23-538700f5c3d1" data-name="polygon3034" points="127.361 336.333 102.786 336.333 81.776 336.333 88.138 407.634 181.158 433.457 181.367 433.399 181.367 386.153 181.168 386.206 130.594 372.55 127.361 336.333" fill="#ebebeb"/><path id="f8674a10-3318-4688-bdad-95011a68c82b" data-name="path3036" d="M462.32043.00005h23.077v22.8h21.11v-22.8h23.078v69.044h-23.077V45.924h-21.11v23.12h-23.077V.00005Z" transform="translate(-428.57143 -0.00005)"/><path id="ad3d21c0-020d-48df-bc57-903da29059ab" data-name="path3038" d="M559.93243,22.89605h-20.316V.00005h63.72v22.896h-20.325v46.148h-23.078v-46.148Z" transform="translate(-428.57143 -0.00005)"/><path id="fb284045-4109-47cb-8093-18ea62eff1a1" data-name="path3040" d="M613.44942.00005h24.063l14.802,24.26,14.787-24.26h24.072v69.044h-22.982v-34.222l-15.877,24.549h-.397l-15.888-24.549v34.222h-22.58V.00005Z" transform="translate(-428.57143 -0.00005)"/><path id="aa291719-e71a-4f47-b29e-b22e07c9a6d5" data-name="path3042" d="M702.65843.00005h23.084v46.222h32.453v22.822h-55.537Z" transform="translate(-428.57143 -0.00005)"/><polygon id="a6cfe76a-abd2-4f2e-a05c-8bb15f54f4de" data-name="polygon3044" points="181.21 313.627 237.128 313.627 231.857 372.521 181.21 386.191 181.21 433.435 274.304 407.634 274.987 399.962 285.658 280.411 286.766 268.217 274.529 268.217 181.21 268.217 181.21 313.627" fill="#fff"/><polygon id="a438ae14-1810-467a-9e8c-f0da319e0e1e" data-name="polygon3046" points="181.21 221.605 181.21 221.716 290.752 221.716 290.752 221.716 290.898 221.716 291.809 211.509 293.878 188.488 294.964 176.305 181.21 176.305 181.21 204.509 181.21 221.605" fill="#fff"/></g></g></svg>