<svg id="aabb4d7d-0e5c-4160-8939-336b95a72b93" data-name="Layer 1" xmlns="http://www.w3.org/2000/svg" width="4.889in" height="7.111in" viewBox="0 0 352 512.011"><path d="M96.06,454.35a32.013,32.013,0,0,0,5.36,17.69l17.09,25.69a31.989,31.989,0,0,0,26.64,14.28h61.71a31.989,31.989,0,0,0,26.64-14.28l17.09-25.69a31.993,31.993,0,0,0,5.36-17.69l.04-38.35H96.01ZM0,176A175.019,175.019,0,0,0,43.56,291.78c16.52,18.85,42.36,58.23,52.21,91.45.04.26.07.52.11.78H256.12c.04-.26.07-.51.11-.78,9.85-33.22,35.69-72.6,52.21-91.45A175.9,175.9,0,0,0,175.45,0C73.44.31,0,82.97,0,176ZM176,96a80.093,80.093,0,0,0-80,80,16,16,0,0,1-32,0A112.123,112.123,0,0,1,176,64a16,16,0,0,1,0,32Z" transform="translate(0 0.001)" fill="#5b65dc"/></svg>