<svg id="b667d328-66e0-4c72-9c8b-68effd6e3ede" data-name="Layer 1" xmlns="http://www.w3.org/2000/svg" width="6.889in" height="6.889in" viewBox="0 0 496 496"><path d="M504,256c0,137-111.043,248-248,248S8,393,8,256C8,119.083,119.043,8,256,8S504,119.083,504,256ZM262.655,90c-54.5,0-89.255,22.957-116.549,63.758a12.017,12.017,0,0,0,2.715,16.258l34.7,26.31a12,12,0,0,0,16.665-2.122c17.864-22.658,30.113-35.8,57.3-35.8,20.429,0,45.7,13.148,45.7,32.958,0,14.976-12.363,22.667-32.534,33.976C247.128,238.528,216,254.941,216,296v4a12,12,0,0,0,12,12h56a12,12,0,0,0,12-12v-1.333c0-28.462,83.186-29.647,83.186-106.667C379.186,134,319.021,90,262.655,90ZM256,338a46,46,0,1,0,46,46A46.051,46.051,0,0,0,256,338Z" transform="translate(-8 -8)" fill="#999"/></svg>