<svg id="b0974aab-0af5-42f1-b3ce-10e473f27745" data-name="Layer 1" xmlns="http://www.w3.org/2000/svg" width="6.889in" height="6.889in" viewBox="0 0 496 496"><path d="M256,8C119,8,8,119,8,256S119,504,256,504,504,393,504,256,393,8,256,8ZM377.6,321.1a12.011,12.011,0,0,1,0,17L338,377.6a12.011,12.011,0,0,1-17,0L256,312l-65.1,65.6a12.011,12.011,0,0,1-17,0L134.4,338a12.011,12.011,0,0,1,0-17L200,256l-65.6-65.1a12.011,12.011,0,0,1,0-17L174,134.3a12.011,12.011,0,0,1,17,0L256,200l65.1-65.6a12.011,12.011,0,0,1,17,0L377.7,174a12.011,12.011,0,0,1,0,17L312,256Z" transform="translate(-8 -8)" fill="#900"/></svg>