<svg id="adc16a98-3c93-4e0d-9ea8-7d705c623cbd" data-name="Layer 1" xmlns="http://www.w3.org/2000/svg" width="6.889in" height="6.889in" viewBox="0 0 496 496"><path d="M504,256c0,137-111.043,248-248,248S8,393,8,256C8,119.083,119.043,8,256,8S504,119.083,504,256ZM256,306a46,46,0,1,0,46,46A46,46,0,0,0,256,306ZM212.327,140.654l7.418,136A12,12,0,0,0,231.727,288h48.546a12,12,0,0,0,11.982-11.346l7.418-136A12,12,0,0,0,287.691,128H224.308a12,12,0,0,0-11.981,12.654Z" transform="translate(-8 -8)" fill="#a7a737"/></svg>