<svg id="b6a55e4a-82be-4ea8-882e-99111c5313c7" data-name="Layer 1" xmlns="http://www.w3.org/2000/svg" width="2000" height="2000" viewBox="0 0 2000 2000"><path d="M1744,647a21.0001,21.0001,0,0,1-21-21V449a39.04388,39.04388,0,0,0-39-39H316a39.04387,39.04387,0,0,0-39,39V626a21,21,0,0,1-42,0V449a81.09167,81.09167,0,0,1,81-81H1684a81.092,81.092,0,0,1,81,81V626A21.0001,21.0001,0,0,1,1744,647Z"/><path d="M1684,1632H316a81.092,81.092,0,0,1-81-81V626a20.99984,20.99984,0,0,1,21-21H1744a21.0001,21.0001,0,0,1,21,21v925A81.09232,81.09232,0,0,1,1684,1632ZM277,647v904a39.04387,39.04387,0,0,0,39,39H1684a39.04388,39.04388,0,0,0,39-39V647Z"/><rect x="407.99469" y="472.4995" width="70.0001" height="70.0001" rx="35"/><rect x="545.99479" y="472.4995" width="70.0001" height="70.0001" rx="35"/><rect x="683.99488" y="472.4995" width="70.00012" height="70.0001" rx="35"/><path d="M792.76318,1304.1572a20.906,20.906,0,0,1-12.8111-4.373L566.48539,1135.1279a20.99975,20.99975,0,0,1,0-33.2558L779.95208,937.2163a21,21,0,1,1,25.6524,33.2559L613.69478,1118.5l191.9097,148.0283a21.0008,21.0008,0,0,1-12.8413,37.6289Z"/><path d="M1207.2363,1304.1572a21.00084,21.00084,0,0,1-12.8408-37.6289L1386.3057,1118.5,1194.3955,970.4722a21,21,0,0,1,25.6524-33.2559l213.4667,164.6558a20.99975,20.99975,0,0,1,0,33.2558l-213.4667,164.6563A20.91221,20.91221,0,0,1,1207.2363,1304.1572Z"/><path d="M922.27488,1429.625a21.01786,21.01786,0,0,1-20.2978-26.4404l155.477-580.2393a20.99973,20.99973,0,1,1,40.5684,10.8701L942.54588,1414.0557A21.00847,21.00847,0,0,1,922.27488,1429.625Z"/><rect width="2000" height="2000" fill="none"/></svg>