<svg id="ad6ce84a-02ae-42f8-ac3d-0f112dbf0636" data-name="Layer 1" xmlns="http://www.w3.org/2000/svg" width="1.77388in" height="1.77388in" viewBox="0 0 127.71928 127.71928"><g id="ec4b9325-e41d-4c18-b53c-6d993fcd5581" data-name="global-network-2"><circle cx="63.85964" cy="63.85964" r="61.4035" fill="none" stroke="#244860" stroke-miterlimit="10" stroke-width="4.91228"/><path d="M781.71518,750.48485c0,33.911-14.2979,61.4035-31.9273,61.4035-17.639,0-31.9299-27.4925-31.9299-61.4035,0-33.9134,14.2909-61.4035,31.9299-61.4035C767.41728,689.08135,781.71518,716.57145,781.71518,750.48485Z" transform="translate(-685.92824 -686.62521)" fill="none" stroke="#244860" stroke-miterlimit="10" stroke-width="4.91228"/><line x1="63.85964" y1="2.45614" x2="63.85964" y2="125.26314" fill="none" stroke="#244860" stroke-miterlimit="10" stroke-width="4.91228"/><line x1="2.45614" y1="63.85964" x2="125.26314" y2="63.85964" fill="none" stroke="#244860" stroke-miterlimit="10" stroke-width="4.91228"/><path d="M749.78788,723.46485c19.3372,0,36.5807-4.4733,47.8372-11.465a61.38633,61.38633,0,0,0-95.6767,0C713.20488,718.99155,730.44578,723.46485,749.78788,723.46485Z" transform="translate(-685.92824 -686.62521)" fill="none" stroke="#244860" stroke-miterlimit="10" stroke-width="4.91228"/><path d="M749.78788,777.50245c-19.3421,0-36.583,4.4734-47.8395,11.4628a61.37861,61.37861,0,0,0,95.6767,0C786.36858,781.97585,769.12508,777.50245,749.78788,777.50245Z" transform="translate(-685.92824 -686.62521)" fill="none" stroke="#244860" stroke-miterlimit="10" stroke-width="4.91228"/><circle cx="90.57972" cy="33.01404" r="9.09538" fill="#4fc1e9" stroke="#244860" stroke-miterlimit="10" stroke-width="4.91228"/><path d="M785.60328,781.04275a9.09535,9.09535,0,1,1-9.0953-9.0954A9.09564,9.09564,0,0,1,785.60328,781.04275Z" transform="translate(-685.92824 -686.62521)" fill="#fc6e51" stroke="#244860" stroke-miterlimit="10" stroke-width="4.91228"/><path d="M727.047,750.48245a9.0978,9.0978,0,1,1-9.0978-9.0953A9.09726,9.09726,0,0,1,727.047,750.48245Z" transform="translate(-685.92824 -686.62521)" fill="#b9dc48" stroke="#244860" stroke-miterlimit="10" stroke-width="4.91228"/></g></svg>