<svg id="b1adea72-9ffa-4c47-ad38-f91fcf090feb" data-name="Layer 1" xmlns="http://www.w3.org/2000/svg" width="311.68054" height="368.63969" viewBox="0 0 311.68054 368.63969"><rect x="285.83008" y="254.40529" width="8.707" height="10.1074" fill="#37474f"/><path d="M373.28909,278.02931h14.6298V313.958a7.33615,7.33615,0,0,1-7.3154,7.3145h0a7.33537,7.33537,0,0,1-7.3144-7.3145Z" transform="translate(-90.41992 -62.41991)" fill="#cdcdcd" fill-rule="evenodd"/><rect x="17.14308" y="254.84279" width="8.707" height="9.2314" fill="#37474f"/><path d="M299.15719,139.18311H300.167a17.61469,17.61469,0,0,1,12.71779,5.4946,19.18962,19.18962,0,0,1,0,26.44829,17.61511,17.61511,0,0,1-12.71779,5.49511h-1.00981a4.53531,4.53531,0,0,1-2.0625-.49511V139.67821A4.529,4.529,0,0,1,299.15719,139.18311Z" transform="translate(-90.41992 -62.41991)" fill="#ffa000"/><path d="M193.3516,139.18311h-1.0083a17.61481,17.61481,0,0,0-12.7183,5.4946,19.188,19.188,0,0,0,0,26.44829,17.61455,17.61455,0,0,0,12.7183,5.49511h1.0083a4.5356,4.5356,0,0,0,2.0634-.49511V139.67821A4.52934,4.52934,0,0,0,193.3516,139.18311Z" transform="translate(-90.41992 -62.41991)" fill="#ffa000"/><rect x="150.50637" y="22.7197" width="10.65671" height="38.1495" fill="#cdcdcd"/><path d="M246.25439,62.41991a13.97247,13.97247,0,0,1,10.1011,4.35109,15.27326,15.27326,0,0,1,0,21.00591,13.90065,13.90065,0,0,1-20.2022,0,15.27328,15.27328,0,0,1,0-21.00591A13.97418,13.97418,0,0,1,246.25439,62.41991Z" transform="translate(-90.41992 -62.41991)" fill="#ffa000"/><path d="M300.34279,215.90431v-97.0581a5.81514,5.81514,0,0,0-5.6983-5.9253H197.8643a5.81506,5.81506,0,0,0-5.6978,5.9253v97.0581Z" transform="translate(-90.41992 -62.41991)" fill="#455a64"/><path d="M219.99069,143.86431a8.585,8.585,0,0,0,0,11.8071,7.81373,7.81373,0,0,0,11.356,0,8.58632,8.58632,0,0,0,0-11.8071,7.81373,7.81373,0,0,0-11.356,0Z" transform="translate(-90.41992 -62.41991)" fill="#dbdbda" fill-rule="evenodd"/><path d="M261.16309,143.86431a8.58605,8.58605,0,0,0,0,11.8071,7.81315,7.81315,0,0,0,11.3555,0,8.58367,8.58367,0,0,0,0-11.8071,7.81315,7.81315,0,0,0-11.3555,0Z" transform="translate(-90.41992 -62.41991)" fill="#dbdbda" fill-rule="evenodd"/><rect x="131.69187" y="119.9346" width="48.2857" height="7.2881" fill="#dbdbda"/><rect x="271.82517" y="187.5752" width="8.0274" height="12.9473" fill="#78878e"/><path d="M119.2314,278.02931H104.6016V313.958a7.33547,7.33547,0,0,0,7.3149,7.3145h0a7.3358,7.3358,0,0,0,7.3149-7.3145Z" transform="translate(-90.41992 -62.41991)" fill="#cdcdcd" fill-rule="evenodd"/><rect x="31.82857" y="187.5752" width="10.9805" height="12.9473" fill="#78878e"/><path d="M287.39117,169.1294h5.1996a10.6065,10.6065,0,0,1,10.6065,10.6065v28.5044a10.6064,10.6064,0,0,1-10.6064,10.6064h-5.2003a10.6054,10.6054,0,0,1-10.6054-10.6054V179.7354A10.606,10.606,0,0,1,287.39117,169.1294Z" fill="#37474f"/><path d="M289.07717,261.76469h1.9521a5.3037,5.3037,0,0,1,5.3037,5.3037V280.543a5.3037,5.3037,0,0,1-5.3037,5.3037h-1.9522a5.3027,5.3027,0,0,1-5.3027-5.3027v-13.4765a5.3028,5.3028,0,0,1,5.3028-5.3028Z" fill="#263238"/><path d="M381.05469,341.709c18.6836,1.0654,27.32131,24.4482,15.9258,34.6318l-5.8262-4.6611c8.63771-12.3545-.6211-20.752-10.0996-21.6358-9.4776.8838-18.7363,9.2813-10.0986,21.6358l-5.8262,4.6611C353.73439,366.1572,362.37109,342.7744,381.05469,341.709Z" transform="translate(-90.41992 -62.41991)" fill="#37474f" fill-rule="evenodd"/><path d="M343.86039,236.07761h0A19.73787,19.73787,0,0,1,363.54,255.75681v1.295a19.73757,19.73757,0,0,1-19.67961,19.6796h0Z" transform="translate(-90.41992 -62.41991)" fill="#cdcdcd" fill-rule="evenodd"/><path d="M19.08888,169.1294H24.289a10.6065,10.6065,0,0,1,10.6065,10.6065v28.5044a10.6064,10.6064,0,0,1-10.6064,10.6064h-5.2003a10.6059,10.6059,0,0,1-10.6059-10.6059V179.7354A10.606,10.606,0,0,1,19.08888,169.1294Z" fill="#37474f"/><path d="M20.65137,261.76469h1.9512a5.3037,5.3037,0,0,1,5.3037,5.3037V280.544a5.3027,5.3027,0,0,1-5.3027,5.3027h-1.9531a5.3028,5.3028,0,0,1-5.3028-5.3028v-13.4755A5.3037,5.3037,0,0,1,20.65137,261.76469Z" fill="#263238"/><path d="M111.4653,341.709c-18.6836,1.0654-27.3208,24.4482-15.9253,34.6318l5.8262-4.6611c-8.6377-12.3545.6211-20.752,10.0991-21.6358,9.4781.8838,18.7368,9.2813,10.0992,21.6358l5.8261,4.6611C138.7861,366.1572,130.1489,342.7744,111.4653,341.709Z" transform="translate(-90.41992 -62.41991)" fill="#37474f" fill-rule="evenodd"/><path d="M148.6602,236.07761h0a19.73756,19.73756,0,0,0-19.6797,19.6792v1.295a19.73726,19.73726,0,0,0,19.6797,19.6796h0Z" transform="translate(-90.41992 -62.41991)" fill="#cdcdcd" fill-rule="evenodd"/><path d="M292.34079,339.1221h-25.4023v68.333a21.93205,21.93205,0,0,1,7.7138-1.4043h4.2764c2.6895,0,10.9815.4931,13.4121,1.4043Z" transform="translate(-90.41992 -62.41991)" fill="#37474f" fill-rule="evenodd"/><path d="M227.96479,407.4551v-68.333H202.563v68.333a21.90641,21.90641,0,0,1,7.71429-1.4043h4.2754C217.24319,406.0508,225.53419,406.5449,227.96479,407.4551Z" transform="translate(-90.41992 -62.41991)" fill="#37474f" fill-rule="evenodd"/><path d="M94.39257,224.68459h125.2793a5.6973,5.6973,0,0,1,5.6973,5.6973v49.0039a5.6972,5.6972,0,0,1-5.6972,5.6972H94.39208a5.6977,5.6977,0,0,1-5.6977-5.6977V230.38279A5.6982,5.6982,0,0,1,94.39257,224.68459Z" fill="#e69000"/><path d="M231.66549,431.0596h-32.8027c-2.42629,0-4.39259-2.5508-4.39259-5.6973a28.87453,28.87453,0,0,1,5.62009-17.5459c3.4683-4.498,8.2559-7.291,13.5259-7.291h3.2959c5.2691,0,10.0571,2.793,13.52491,7.291a28.87157,28.87157,0,0,1,5.62059,17.5459C236.05759,428.5088,234.09079,431.0596,231.66549,431.0596Z" transform="translate(-90.41992 -62.41991)" fill="#ffa000"/><path d="M322.30569,298.501A22.12105,22.12105,0,0,0,344.377,276.42971v-40.8052a22.12021,22.12021,0,0,0-22.07131-22.0713H170.2144a22.12088,22.12088,0,0,0-22.0713,22.0713v40.8052A22.12172,22.12172,0,0,0,170.2144,298.501Z" transform="translate(-90.41992 -62.41991)" fill="#ffa000" fill-rule="evenodd"/><path d="M296.041,431.0596H263.23829c-2.4258,0-4.3926-2.5508-4.3926-5.6973a28.87131,28.87131,0,0,1,5.6201-17.5459c3.4688-4.498,8.2559-7.291,13.5254-7.291h3.2959c5.2695,0,10.0576,2.793,13.5254,7.291a28.87178,28.87178,0,0,1,5.6211,17.5459C300.43359,428.5088,298.46679,431.0596,296.041,431.0596Z" transform="translate(-90.41992 -62.41991)" fill="#ffa000"/></svg>