<svg id="b95105aa-89bf-47ff-a5fc-b3b1ff314b9d" data-name="Layer 1" xmlns="http://www.w3.org/2000/svg" width="2.85372in" height="1.5404in" viewBox="0 0 205.46769 110.9091"><path d="M787.64,775.36564l-45.7545-33.2425a101.60387,101.60387,0,0,1,50.6937-36.8543l17.47659,53.7874A45.04421,45.04421,0,0,0,787.64,775.36564Z" transform="translate(-721.18567 -699.65754)" fill="#feaf00"/><path d="M779.04927,801.72424h-56.5294a100.93312,100.93312,0,0,1,19.3656-59.6011l45.7545,33.2425A44.61781,44.61781,0,0,0,779.04927,801.72424Z" transform="translate(-721.18567 -699.65754)" fill="#fe2a00"/><path d="M823.91947,756.854a44.68147,44.68147,0,0,0-13.86371,2.2022l-17.47659-53.7874a101.802,101.802,0,0,1,62.68059,0l-17.47659,53.7874A44.68141,44.68141,0,0,0,823.91947,756.854Z" transform="translate(-721.18567 -699.65754)" fill="#fef000"/><path d="M860.19907,775.36564l45.75429-33.2425a100.9326,100.9326,0,0,1,19.3658,59.6011H868.78967A44.61841,44.61841,0,0,0,860.19907,775.36564Z" transform="translate(-721.18567 -699.65754)" fill="#1ea614"/><path d="M837.78317,759.05624l17.47659-53.7874a101.60275,101.60275,0,0,1,50.6936,36.8543l-45.75429,33.2425A45.04537,45.04537,0,0,0,837.78317,759.05624Z" transform="translate(-721.18567 -699.65754)" fill="#9fcc00"/><circle cx="823.9195" cy="802.39146" r="8.17338" transform="translate(-1043.36315 7.14568) rotate(-39.47398)" fill="#101012"/><path d="M874.9688,777.23357l-52.25766,21.19728,3.99642,8.108,48.64071-28.5354A.4303.4303,0,0,0,874.9688,777.23357Z" transform="translate(-721.18567 -699.65754)" opacity="0.3"/><path d="M874.17891,777.14017,821.9213,798.33754l3.99638,8.10789,48.6407-28.5354A.43028.43028,0,0,0,874.17891,777.14017Z" transform="translate(-721.18567 -699.65754)" fill="#101012"/><path d="M819.79883,804.42228a4.59385,4.59385,0,1,0,2.08989-6.15107A4.59919,4.59919,0,0,0,819.79883,804.42228Z" transform="translate(-721.18567 -699.65754)" fill="#1b1b1f"/><path d="M828.53909,795.65314l45.63982-18.513a.4157.4157,0,0,1,.54769.20844l-43.47592,21.42928-7.33121,3.61355-7.33113,3.61352a8.17077,8.17077,0,0,1,11.95075-10.35182Z" transform="translate(-721.18567 -699.65754)" opacity="0.36"/><path d="M740.80607,742.006a102.73395,102.73395,0,0,1,185.84729,60.3853v.0001h-8.5612v-.0001a94.1727,94.1727,0,0,0-188.3454,0v.0001h-8.56109v-.0001A102.26139,102.26139,0,0,1,740.80607,742.006Z" transform="translate(-721.18567 -699.65754)" fill="#1b1b1f"/><path d="M915.95186,802.39134a92.0324,92.0324,0,0,0-184.06479,0v.0001h-2.14031v-.0001a94.1727,94.1727,0,0,1,188.3454,0v.0001h-2.1403Z" transform="translate(-721.18567 -699.65754)" fill="#101012"/></svg>