<svg id="bb3f4a71-fefd-420f-8c7b-aa274dca6079" data-name="Layer 1" xmlns="http://www.w3.org/2000/svg" width="1.68286in" height="1.97856in" viewBox="0 0 121.16628 142.45618"><g id="ae8be87d-e788-4071-a504-c7723a3e6ef1" data-name="ssl-certificated"><path d="M709.67178,739.0245v-17.193a40.11735,40.11735,0,1,1,80.2347,0v17.193h-12.6356l1.1728-3.2814.0192-14.727a28.67265,28.67265,0,1,0-57.3453,0v14.7464l1.1515,3.2716Z" transform="translate(-689.20474 -679.25676)" fill="#fff3b4"/><path d="M807.91488,750.4848v57.3067a11.46239,11.46239,0,0,1-11.4603,11.4653h-93.3334a11.46239,11.46239,0,0,1-11.4603-11.4653V750.4848a11.45831,11.45831,0,0,1,11.4603-11.4603h93.3334A11.45831,11.45831,0,0,1,807.91488,750.4848Z" transform="translate(-689.20474 -679.25676)" fill="#fff" stroke="#244860" stroke-linecap="round" stroke-linejoin="round" stroke-width="4.91228"/><path d="M709.67178,739.0245v-17.193a40.11492,40.11492,0,0,1,40.1161-40.1186h0a40.11705,40.11705,0,0,1,40.1186,40.1186v17.193" transform="translate(-689.20474 -679.25676)" fill="none" stroke="#244860" stroke-linecap="round" stroke-linejoin="round" stroke-width="4.91228"/><path d="M721.11758,735.7625V721.0161a28.67076,28.67076,0,0,1,28.6703-28.6728h0a28.67333,28.67333,0,0,1,28.675,28.6728v14.7464" transform="translate(-689.20474 -679.25676)" fill="none" stroke="#244860" stroke-linecap="round" stroke-linejoin="round" stroke-width="4.91228"/><circle cx="749.7879" cy="780.33752" r="30.70178" transform="translate(-871.14532 651.52656) rotate(-76.71749)" fill="#ffc494"/><path d="M729.45218,787.5119a3.67593,3.67593,0,0,0-1.2627-2.9141,12.69214,12.69214,0,0,0-4.4365-2.0727,25.19855,25.19855,0,0,1-8.2569-3.8638,7.31229,7.31229,0,0,1-2.8173-6.0659,7.629,7.629,0,0,1,3.1733-6.3144,14.66953,14.66953,0,0,1,16.50342.1835,8.23981,8.23981,0,0,1,3.07617,6.9078l-.043.1294h-6.10937a4.57627,4.57627,0,0,0-1.42485-3.6158,5.81806,5.81806,0,0,0-3.9936-1.2627,5.27866,5.27866,0,0,0-3.605,1.1226,3.655,3.655,0,0,0-1.2734,2.8711,3.13473,3.13473,0,0,0,1.3813,2.6225,18.443,18.443,0,0,0,4.771,2.1695,20.52735,20.52735,0,0,1,7.9009,3.832,7.84872,7.84872,0,0,1,2.71972,6.228,7.49619,7.49619,0,0,1-3.15136,6.3682,13.68454,13.68454,0,0,1-8.33306,2.3311,14.88836,14.88836,0,0,1-8.7099-2.5254,8.33076,8.33076,0,0,1-3.5298-7.5342l.0435-.1294h6.1088a4.94458,4.94458,0,0,0,1.6407,4.1016,6.90657,6.90657,0,0,0,4.4467,1.3169,6.071,6.071,0,0,0,3.8536-1.0577A3.43069,3.43069,0,0,0,729.45218,787.5119Z" transform="translate(-689.20474 -679.25676)" fill="#244860"/><path d="M756.78128,787.5119a3.67593,3.67593,0,0,0-1.2627-2.9141,12.69214,12.69214,0,0,0-4.4365-2.0727,25.19772,25.19772,0,0,1-8.25685-3.8638,7.31228,7.31228,0,0,1-2.81739-6.0659,7.629,7.629,0,0,1,3.17334-6.3144,14.6695,14.6695,0,0,1,16.5034.1835,8.23967,8.23967,0,0,1,3.0762,6.9078l-.043.1294h-6.1093a4.5763,4.5763,0,0,0-1.4249-3.6158,5.81806,5.81806,0,0,0-3.9936-1.2627,5.27867,5.27867,0,0,0-3.605,1.1226,3.655,3.655,0,0,0-1.27343,2.8711,3.13477,3.13477,0,0,0,1.38134,2.6225,18.44278,18.44278,0,0,0,4.771,2.1695,20.5275,20.5275,0,0,1,7.9009,3.832,7.84861,7.84861,0,0,1,2.7197,6.228,7.49631,7.49631,0,0,1-3.1513,6.3682,13.68453,13.68453,0,0,1-8.3331,2.3311,14.88842,14.88842,0,0,1-8.70991-2.5254,8.33087,8.33087,0,0,1-3.52979-7.5342l.04346-.1294h6.10889a4.94469,4.94469,0,0,0,1.64062,4.1016,6.90675,6.90675,0,0,0,4.44673,1.3169,6.071,6.071,0,0,0,3.8536-1.0577A3.43069,3.43069,0,0,0,756.78128,787.5119Z" transform="translate(-689.20474 -679.25676)" fill="#244860"/><path d="M774.02978,790.8796h14.0747v4.8354h-20.3784V764.2839h6.3037Z" transform="translate(-689.20474 -679.25676)" fill="#244860"/></g></svg>